# xmcd
#
# Track frame offsets: 
#        150
#        17025
#        32127
#        51187
#        65226
#        81001
#        98211
#        114907
#        130407
#        147044
#        162600
#        179350
#        195307
#        209862
#
# Disc length: 3026 seconds
#
# Revision: 1
# Processed by: cddbd v1.5.2PL0 Copyright (c) Steve Scherf et al.
# Submitted via: ExactAudioCopy v1.0b2
#
DISCID=cc0bd00e
DTITLE=Trace Adkins - Proud to Be Here (Deluxe Edition)
DYEAR=2011
DGENRE=Country
TTITLE0=Proud to Be Here
TTITLE1=Million Dollar View
TTITLE2=Days Like This
TTITLE3=That's What You Get
TTITLE4=Just Fishin'
TTITLE5=It's a Woman Thang
TTITLE6=Love Buzz
TTITLE7=It's Who You Know
TTITLE8=Poor Folks
TTITLE9=Always Gonna Be That Way
TTITLE10=Damn You Bubba
TTITLE11=More of Us
TTITLE12=If I Was a Woman (feat. Blake Shelton)
TTITLE13=Semper Fi
EXTD=
EXTT0=
EXTT1=
EXTT2=
EXTT3=
EXTT4=
EXTT5=
EXTT6=
EXTT7=
EXTT8=
EXTT9=
EXTT10=
EXTT11=
EXTT12=
EXTT13=
PLAYORDER=
